<svg width="17" height="18" viewBox="0 0 17 18" fill="none" xmlns="http://www.w3.org/2000/svg">
<path d="M13.1326 3.41839L9.23673 1.95922C8.83298 1.81047 8.17423 1.81047 7.77048 1.95922L3.87465 3.41839C3.12382 3.70172 2.51465 4.58005 2.51465 5.38047V11.118C2.51465 11.6917 2.89007 12.4496 3.35048 12.7896L7.24631 15.7009C7.9334 16.218 9.05965 16.218 9.74673 15.7009L13.6426 12.7896C14.103 12.4426 14.4784 11.6917 14.4784 11.118V5.38047C14.4855 4.58005 13.8763 3.70172 13.1326 3.41839ZM10.9651 7.38505L7.91923 10.4309C7.81298 10.5371 7.6784 10.5867 7.54381 10.5867C7.40923 10.5867 7.27465 10.5371 7.1684 10.4309L6.03507 9.28338C5.82965 9.07797 5.82965 8.73797 6.03507 8.53255C6.24048 8.32714 6.58048 8.32714 6.7859 8.53255L7.5509 9.29755L10.2213 6.62713C10.4267 6.42172 10.7667 6.42172 10.9721 6.62713C11.1776 6.83255 11.1776 7.17964 10.9651 7.38505Z" fill="white"/>
</svg>
