<svg width="22" height="22" viewBox="0 0 22 22" fill="none" xmlns="http://www.w3.org/2000/svg">
<path d="M10.5625 19.175C15.1534 19.175 18.875 15.4534 18.875 10.8625C18.875 6.27168 15.1534 2.55005 10.5625 2.55005C5.97163 2.55005 2.25 6.27168 2.25 10.8625C2.25 15.4534 5.97163 19.175 10.5625 19.175Z" fill="#7A2B46"/>
<path d="M19.1375 20.05C18.98 20.05 18.8225 19.9888 18.7087 19.875L17.0812 18.2475C16.845 18.0113 16.845 17.6263 17.0812 17.3813C17.3175 17.145 17.7025 17.145 17.9475 17.3813L19.575 19.0088C19.8112 19.245 19.8112 19.63 19.575 19.875C19.4525 19.9888 19.295 20.05 19.1375 20.05Z" fill="#7A2B46"/>
</svg>
