<svg width="20" height="21" viewBox="0 0 20 21" fill="none" xmlns="http://www.w3.org/2000/svg">
<path d="M9.58317 18.9251C4.87484 18.9251 1.0415 15.0918 1.0415 10.3835C1.0415 5.67513 4.87484 1.8418 9.58317 1.8418C14.2915 1.8418 18.1248 5.67513 18.1248 10.3835C18.1248 15.0918 14.2915 18.9251 9.58317 18.9251ZM9.58317 3.0918C5.55817 3.0918 2.2915 6.3668 2.2915 10.3835C2.2915 14.4001 5.55817 17.6751 9.58317 17.6751C13.6082 17.6751 16.8748 14.4001 16.8748 10.3835C16.8748 6.3668 13.6082 3.0918 9.58317 3.0918Z" fill="#8B8B8B"/>
<path d="M18.3335 19.7583C18.1752 19.7583 18.0169 19.7 17.8919 19.575L16.2252 17.9083C15.9835 17.6667 15.9835 17.2667 16.2252 17.025C16.4669 16.7833 16.8669 16.7833 17.1085 17.025L18.7752 18.6917C19.0169 18.9333 19.0169 19.3333 18.7752 19.575C18.6502 19.7 18.4919 19.7583 18.3335 19.7583Z" fill="#8B8B8B"/>
</svg>
