<svg width="20" height="21" viewBox="0 0 20 21" fill="none" xmlns="http://www.w3.org/2000/svg">
<path d="M17.3834 7.93768L11.6084 3.32102C10.7167 2.60435 9.27506 2.60435 8.39172 3.31268L2.61672 7.93768C1.96672 8.45435 1.55006 9.54602 1.69172 10.3627L2.80006 16.996C3.00006 18.1793 4.13339 19.1377 5.33339 19.1377H14.6667C15.8584 19.1377 17.0001 18.171 17.2001 16.996L18.3084 10.3627C18.4417 9.54602 18.0251 8.45435 17.3834 7.93768ZM10.0001 13.8793C8.85006 13.8793 7.91673 12.946 7.91673 11.796C7.91673 10.646 8.85006 9.71268 10.0001 9.71268C11.1501 9.71268 12.0834 10.646 12.0834 11.796C12.0834 12.946 11.1501 13.8793 10.0001 13.8793Z" fill="#7A2B46"/>
</svg>
