<svg width="22" height="22" viewBox="0 0 22 22" fill="none" xmlns="http://www.w3.org/2000/svg">
<path d="M15.8999 20.7026H6.09986C4.50736 20.7026 3.05487 19.4776 2.79237 17.9026L1.62861 10.9376C1.44486 9.85265 1.96987 8.4614 2.83612 7.77015L8.89988 2.91386C10.0724 1.96886 11.9186 1.97762 13.0999 2.92262L19.1636 7.77015C20.0211 8.4614 20.5461 9.85265 20.3711 10.9376L19.2074 17.9026C18.9449 19.4514 17.4661 20.7026 15.8999 20.7026ZM10.9911 3.53513C10.5274 3.53513 10.0636 3.6751 9.72236 3.94635L3.65862 8.80265C3.15987 9.20515 2.81862 10.0976 2.92362 10.7276L4.08738 17.6926C4.24488 18.6114 5.16361 19.3901 6.09986 19.3901H15.8999C16.8361 19.3901 17.7549 18.6114 17.9124 17.6839L19.0761 10.7189C19.1811 10.0889 18.8311 9.18764 18.3411 8.79389L12.2774 3.94635C11.9274 3.6751 11.4636 3.53513 10.9911 3.53513Z" fill="#8B8B8B"/>
<path d="M11 15.1814C9.43375 15.1814 8.15625 13.9039 8.15625 12.3376C8.15625 10.7714 9.43375 9.4939 11 9.4939C12.5662 9.4939 13.8438 10.7714 13.8438 12.3376C13.8438 13.9039 12.5662 15.1814 11 15.1814ZM11 10.8064C10.16 10.8064 9.46875 11.4976 9.46875 12.3376C9.46875 13.1776 10.16 13.8689 11 13.8689C11.84 13.8689 12.5312 13.1776 12.5312 12.3376C12.5312 11.4976 11.84 10.8064 11 10.8064Z" fill="#8B8B8B"/>
</svg>
